# xmcd CD database file
#
# Track frame offsets:
#	150
#	23355
#	41127
#	56772
#	74670
#	105392
#	134950
#	154377
#	168847
#	187777
#	205962
#
# Disc length: 3280 seconds
#
# Revision: 0
# Processed by: cddbd v1.4PL0 Copyright (c) Steve Scherf et al.
# Submitted via: CDex 1.50beta10
#
DISCID=9b0cce0b
DTITLE=Dan Rockett - What I've Seen
DYEAR=2002
DGENRE=Rhythmic Soul
TTITLE0=Prodigal Son
TTITLE1=Wonderful Day
TTITLE2=Driving Home
TTITLE3=Sea Side
TTITLE4=Soul Love
TTITLE5=The Real Thing
TTITLE6=In The Light
TTITLE7=Midnight Train
TTITLE8=Wind and Rain
TTITLE9=My Song
TTITLE10=Shadows and Bones
EXTD=YEAR: 2002
EXTT0=
EXTT1=
EXTT2=
EXTT3=
EXTT4=
EXTT5=
EXTT6=
EXTT7=
EXTT8=
EXTT9=
EXTT10=
PLAYORDER=
